# xmcd
#
# Track frame offsets:
#	150
#	16337
#	36409
#	48561
#	64769
#	70262
#	93017
#	116240
#	120257
#	143998
#	167517
#	196717
#	219788
#	237732
#	262933
#	285318
#	305822
#
# Disc length: 4289 seconds
#
# Revision: 0
# Processed by: cddbd v1.5.2PL0 Copyright (c) Steve Scherf et al.
# Submitted via: EasyCDDAExtractor 11.0.2.1
#
DISCID=ee10bf11
DTITLE=Blade Icewood - Still Spinnin' Vol. 1
DYEAR=2007
DGENRE=Rave
TTITLE0=Every Ghetto
TTITLE1=Under Bossin (Feat. Calhoon)
TTITLE2=Oh Boy (Feat. Twan)
TTITLE3=How Do I
TTITLE4=Freestyle (Feat. Juan)
TTITLE5=Da Cars (Feat. MLD and Fat Mike)
TTITLE6=Shine (Feat. Dirty Glove)
TTITLE7=Freestyle (Feat. Calhoon)
TTITLE8=Street Lordz (Remix Feat. State Property)
TTITLE9=Chrome On Them Thangs (Remix Feat. Baby, Fat Mike, Groch, Esham, Juan 
TTITLE9=& Jesse James)
TTITLE10=Boy Would You (Feat. MLB)
TTITLE11=Light Money (Feat. Richie Rich and B-Legit)
TTITLE12=Friends And Lords (Feat. Street Lordz)
TTITLE13=Boys From Da Block (Feat. Street Lordz)
TTITLE14=All Paper (Feat. Rook and O-Dolla)
TTITLE15=Black Prez
TTITLE16=Juan and Blade (Feat. Juan)
EXTD=
EXTT0=
EXTT1=
EXTT2=
EXTT3=
EXTT4=
EXTT5=
EXTT6=
EXTT7=
EXTT8=
EXTT9=
EXTT10=
EXTT11=
EXTT12=
EXTT13=
EXTT14=
EXTT15=
EXTT16=
PLAYORDER=
